<svg width="61" height="62" viewBox="0 0 61 62" fill="none" xmlns="http://www.w3.org/2000/svg">
<path fill-rule="evenodd" clip-rule="evenodd" d="M36.309 0.128994C35.6746 0.361567 35.1441 0.812998 34.813 1.40199C34.6264 1.7471 34.5183 2.12917 34.4965 2.5209C34.4747 2.91263 34.5398 3.30433 34.687 3.66799C34.988 4.40199 35.602 4.96499 36.359 5.20299C36.566 5.26599 36.996 5.34799 37.32 5.38299C39.277 5.60899 41.844 6.39799 43.879 7.39799C48.1825 9.47837 51.643 12.9707 53.684 17.293C54.676 19.355 55.246 21.215 55.609 23.559C55.801 24.781 56.004 25.269 56.535 25.781C57.027 26.25 57.57 26.453 58.332 26.453C59.098 26.453 59.641 26.25 60.129 25.781C60.938 25.008 61.105 24.242 60.844 22.551C59.9963 16.9149 57.3601 11.7002 53.324 7.67599C49.293 3.64499 44.207 1.06999 38.492 0.163994C37.332 -0.023006 36.762 -0.031006 36.309 0.128994ZM6.332 2.83899C4.76397 3.17904 3.33264 3.97811 2.22031 5.13442C1.10799 6.29074 0.365004 7.75197 0.0859967 9.33199C-0.316003 11.632 0.827996 17.942 2.594 23.199C6.184 33.883 13.008 43.399 21.836 50.027C26.4508 53.489 31.5545 56.2458 36.98 58.207C41.746 59.902 48.121 61.23 50.813 61.09C53.73 60.934 56.238 59.254 57.531 56.586C58.281 55.031 58.281 55.059 58.281 49.066C58.281 43.016 58.289 43.098 57.473 41.434C57.0132 40.4976 56.3727 39.6613 55.5884 38.9735C54.804 38.2856 53.8914 37.7597 52.903 37.426C52.18 37.226 51.449 37.07 50.711 36.953C48.633 36.602 47.387 36.289 45.161 35.551C43.445 34.984 43.277 34.949 42.047 34.902C40.504 34.844 39.559 35.02 38.398 35.574C37.25 36.125 36.75 36.5 35.383 37.844L34.137 39.062L33.039 38.312C28.939 35.4773 25.3923 31.9163 22.574 27.805L21.941 26.863L23.156 25.617C24.508 24.234 24.895 23.719 25.434 22.582C25.969 21.449 26.148 20.472 26.094 18.934C26.051 17.723 26.016 17.554 25.449 15.84C24.711 13.613 24.399 12.367 24.047 10.29C23.9303 9.55109 23.7724 8.81928 23.574 8.09799C23.241 7.10923 22.7153 6.19626 22.0274 5.41186C21.3394 4.62745 20.5029 3.98716 19.566 3.52799C17.934 2.72699 18.039 2.73799 12.254 2.70699C7.938 2.68399 6.957 2.70299 6.332 2.83999M17.215 8.27999C18.199 8.81499 18.48 9.35799 18.825 11.39C19.156 13.37 19.691 15.507 20.309 17.32C20.836 18.878 20.91 19.616 20.617 20.331C20.504 20.601 19.711 21.487 18.332 22.881C16.32 24.921 16.211 25.05 16.035 25.655C15.703 26.785 16.015 27.569 17.937 30.452C21.2054 35.3543 25.3983 39.5723 30.281 42.87C33.421 44.987 34.184 45.304 35.344 44.964C35.949 44.788 36.078 44.683 38.125 42.659C39.441 41.354 40.422 40.476 40.66 40.374C41.352 40.084 42.133 40.167 43.68 40.69C45.6135 41.3377 47.5945 41.8342 49.605 42.175C51.645 42.519 52.203 42.819 52.746 43.839C52.93 44.183 52.949 44.565 52.98 48.827C52.996 51.854 52.969 53.585 52.895 53.862C52.617 54.894 51.473 55.784 50.425 55.784C49.762 55.784 47.863 55.522 46.121 55.187C33.09 52.675 21.27 44.934 13.965 34.133C10.449 28.93 8.148 23.926 6.66 18.234C5.988 15.652 5.324 11.887 5.324 10.605C5.32 9.92499 5.75 9.04299 6.293 8.60899C7.055 8.00399 7.093 8.00399 12.148 8.03099C16.676 8.05499 16.797 8.05899 17.215 8.28099M36.309 10.797C35.7798 10.9761 35.3206 11.3175 34.9965 11.7726C34.6725 12.2277 34.5002 12.7733 34.504 13.332C34.504 13.898 34.559 14.132 34.813 14.598C35.223 15.348 35.801 15.734 36.918 16.012C40.988 17.02 43.895 19.895 44.949 23.942C45.281 25.222 45.633 25.766 46.402 26.187C47.125 26.578 47.988 26.613 48.738 26.285C49.1094 26.1208 49.4383 25.8739 49.6997 25.5632C49.961 25.2524 50.1479 24.886 50.246 24.492C50.594 23.187 49.406 19.801 47.734 17.332C46.894 16.09 44.91 14.105 43.668 13.266C41.043 11.488 37.602 10.336 36.308 10.796" fill="#FF5722"/>
</svg>
