<svg width="34" height="33" viewBox="0 0 34 33" fill="none" xmlns="http://www.w3.org/2000/svg">
<path d="M31.7304 0.48291H2.27131C1.56285 0.48291 0.990479 1.05528 0.990479 1.76374V31.2229C0.990479 31.9313 1.56285 32.5037 2.27131 32.5037H31.7304C32.4389 32.5037 33.0113 31.9313 33.0113 31.2229V1.76374C33.0113 1.05528 32.4389 0.48291 31.7304 0.48291ZM28.032 9.82897H25.4744C23.4691 9.82897 23.0808 10.7816 23.0808 12.1825V15.2685H27.8679L27.2435 20.0996H23.0808V32.5037H18.0896V20.1036H13.9149V15.2685H18.0896V11.7062C18.0896 7.57151 20.6152 5.31805 24.3056 5.31805C26.0748 5.31805 27.5917 5.45013 28.036 5.51017V9.82897H28.032Z" fill="#FF5722"/>
</svg>
