<svg width="0" height="0" class="hidden">
  <symbol fill="none" xmlns="http://www.w3.org/2000/svg" viewBox="0 0 64 48" id="letter">
    <path d="M58 0H6C2.687 0 0 2.688 0 6V42C0 45.313 2.688 48 6 48H58C61.313 48 64 45.312 64 42V6C64 2.687 61.312 0 58 0ZM58 6V11.102C55.195 13.382 50.73 16.934 41.176 24.41C39.07 26.066 34.902 30.047 32 30C29.098 30.047 24.926 26.066 22.824 24.41C13.274 16.934 8.804 13.383 6 11.102V6H58ZM6 42V18.8C8.863 21.082 12.926 24.281 19.117 29.129C21.847 31.28 26.633 36.027 32 36C37.34 36.027 42.063 31.352 44.883 29.133C49.2692 25.7063 53.6416 22.2619 58 18.8V42H6Z" fill="#FF5722"></path>
  </symbol>
  <symbol fill="none" xmlns="http://www.w3.org/2000/svg" viewBox="0 0 38 54" id="location">
    <path d="M19 0.332001C8.68 0.332001 0.332001 8.68 0.332001 19C0.332001 33 19 53.668 19 53.668C19 53.668 37.668 33 37.668 19C37.668 8.68 29.32 0.332001 19 0.332001ZM19 25.668C17.2319 25.6669 15.5364 24.9641 14.2862 23.7138C13.0359 22.4636 12.3331 20.7681 12.332 19C12.3331 17.2319 13.0359 15.5364 14.2862 14.2862C15.5364 13.0359 17.2319 12.3331 19 12.332C20.7681 12.3331 22.4636 13.0359 23.7138 14.2862C24.9641 15.5364 25.6669 17.2319 25.668 19C25.6669 20.7681 24.9641 22.4636 23.7138 23.7138C22.4636 24.9641 20.7681 25.6669 19 25.668V25.668Z" fill="#FF5722"></path>
  </symbol>
  <symbol fill="none" xmlns="http://www.w3.org/2000/svg" viewBox="0 0 61 62" id="calling">
    <path fill-rule="evenodd" clip-rule="evenodd" d="M36.309 0.128994C35.6746 0.361567 35.1441 0.812998 34.813 1.40199C34.6264 1.7471 34.5183 2.12917 34.4965 2.5209C34.4747 2.91263 34.5398 3.30433 34.687 3.66799C34.988 4.40199 35.602 4.96499 36.359 5.20299C36.566 5.26599 36.996 5.34799 37.32 5.38299C39.277 5.60899 41.844 6.39799 43.879 7.39799C48.1825 9.47837 51.643 12.9707 53.684 17.293C54.676 19.355 55.246 21.215 55.609 23.559C55.801 24.781 56.004 25.269 56.535 25.781C57.027 26.25 57.57 26.453 58.332 26.453C59.098 26.453 59.641 26.25 60.129 25.781C60.938 25.008 61.105 24.242 60.844 22.551C59.9963 16.9149 57.3601 11.7002 53.324 7.67599C49.293 3.64499 44.207 1.06999 38.492 0.163994C37.332 -0.023006 36.762 -0.031006 36.309 0.128994ZM6.332 2.83899C4.76397 3.17904 3.33264 3.97811 2.22031 5.13442C1.10799 6.29074 0.365004 7.75197 0.0859967 9.33199C-0.316003 11.632 0.827996 17.942 2.594 23.199C6.184 33.883 13.008 43.399 21.836 50.027C26.4508 53.489 31.5545 56.2458 36.98 58.207C41.746 59.902 48.121 61.23 50.813 61.09C53.73 60.934 56.238 59.254 57.531 56.586C58.281 55.031 58.281 55.059 58.281 49.066C58.281 43.016 58.289 43.098 57.473 41.434C57.0132 40.4976 56.3727 39.6613 55.5884 38.9735C54.804 38.2856 53.8914 37.7597 52.903 37.426C52.18 37.226 51.449 37.07 50.711 36.953C48.633 36.602 47.387 36.289 45.161 35.551C43.445 34.984 43.277 34.949 42.047 34.902C40.504 34.844 39.559 35.02 38.398 35.574C37.25 36.125 36.75 36.5 35.383 37.844L34.137 39.062L33.039 38.312C28.939 35.4773 25.3923 31.9163 22.574 27.805L21.941 26.863L23.156 25.617C24.508 24.234 24.895 23.719 25.434 22.582C25.969 21.449 26.148 20.472 26.094 18.934C26.051 17.723 26.016 17.554 25.449 15.84C24.711 13.613 24.399 12.367 24.047 10.29C23.9303 9.55109 23.7724 8.81928 23.574 8.09799C23.241 7.10923 22.7153 6.19626 22.0274 5.41186C21.3394 4.62745 20.5029 3.98716 19.566 3.52799C17.934 2.72699 18.039 2.73799 12.254 2.70699C7.938 2.68399 6.957 2.70299 6.332 2.83999M17.215 8.27999C18.199 8.81499 18.48 9.35799 18.825 11.39C19.156 13.37 19.691 15.507 20.309 17.32C20.836 18.878 20.91 19.616 20.617 20.331C20.504 20.601 19.711 21.487 18.332 22.881C16.32 24.921 16.211 25.05 16.035 25.655C15.703 26.785 16.015 27.569 17.937 30.452C21.2054 35.3543 25.3983 39.5723 30.281 42.87C33.421 44.987 34.184 45.304 35.344 44.964C35.949 44.788 36.078 44.683 38.125 42.659C39.441 41.354 40.422 40.476 40.66 40.374C41.352 40.084 42.133 40.167 43.68 40.69C45.6135 41.3377 47.5945 41.8342 49.605 42.175C51.645 42.519 52.203 42.819 52.746 43.839C52.93 44.183 52.949 44.565 52.98 48.827C52.996 51.854 52.969 53.585 52.895 53.862C52.617 54.894 51.473 55.784 50.425 55.784C49.762 55.784 47.863 55.522 46.121 55.187C33.09 52.675 21.27 44.934 13.965 34.133C10.449 28.93 8.148 23.926 6.66 18.234C5.988 15.652 5.324 11.887 5.324 10.605C5.32 9.92499 5.75 9.04299 6.293 8.60899C7.055 8.00399 7.093 8.00399 12.148 8.03099C16.676 8.05499 16.797 8.05899 17.215 8.28099M36.309 10.797C35.7798 10.9761 35.3206 11.3175 34.9965 11.7726C34.6725 12.2277 34.5002 12.7733 34.504 13.332C34.504 13.898 34.559 14.132 34.813 14.598C35.223 15.348 35.801 15.734 36.918 16.012C40.988 17.02 43.895 19.895 44.949 23.942C45.281 25.222 45.633 25.766 46.402 26.187C47.125 26.578 47.988 26.613 48.738 26.285C49.1094 26.1208 49.4383 25.8739 49.6997 25.5632C49.961 25.2524 50.1479 24.886 50.246 24.492C50.594 23.187 49.406 19.801 47.734 17.332C46.894 16.09 44.91 14.105 43.668 13.266C41.043 11.488 37.602 10.336 36.308 10.796" fill="#FF5722"></path>
  </symbol>
  <symbol fill="none" xmlns="http://www.w3.org/2000/svg" viewBox="0 0 34 29" id="twitter">
    <path d="M33.6651 4.17846C32.4403 4.7068 31.1074 5.08705 29.7346 5.23514C31.1599 4.38834 32.2273 3.05052 32.7365 1.4727C31.399 2.26837 29.9337 2.82631 28.4057 3.12177C27.7671 2.43903 26.9947 1.89514 26.1366 1.52396C25.2786 1.15279 24.3533 0.962307 23.4185 0.964372C19.636 0.964372 16.594 4.03036 16.594 7.7928C16.594 8.32115 16.6581 8.84949 16.7621 9.35782C11.0985 9.06163 6.04719 6.35587 2.68901 2.21318C2.07711 3.25832 1.75646 4.44834 1.76041 5.65942C1.76041 8.02896 2.96519 10.1183 4.80238 11.3471C3.71969 11.3045 2.66236 11.0069 1.71638 10.4785V10.5626C1.71638 13.8808 4.0619 16.6305 7.18793 17.2629C6.60098 17.4154 5.99718 17.4934 5.39076 17.4951C4.94647 17.4951 4.5262 17.4511 4.10192 17.391C4.96649 20.0968 7.48412 22.0621 10.4821 22.1261C8.13654 23.9633 5.19864 25.044 2.00857 25.044C1.4362 25.044 0.907853 25.024 0.359497 24.9599C3.38546 26.9012 6.97579 28.0219 10.8423 28.0219C23.3944 28.0219 30.2629 17.6232 30.2629 8.59733C30.2629 8.30113 30.2629 8.00494 30.2429 7.70875C31.5717 6.73612 32.7365 5.53134 33.6651 4.17846Z" fill="#FF5722"></path>
  </symbol>
  <symbol fill="none" xmlns="http://www.w3.org/2000/svg" viewBox="0 0 34 33" id="facebook">
    <path d="M31.7304 0.48291H2.27131C1.56285 0.48291 0.990479 1.05528 0.990479 1.76374V31.2229C0.990479 31.9313 1.56285 32.5037 2.27131 32.5037H31.7304C32.4389 32.5037 33.0113 31.9313 33.0113 31.2229V1.76374C33.0113 1.05528 32.4389 0.48291 31.7304 0.48291ZM28.032 9.82897H25.4744C23.4691 9.82897 23.0808 10.7816 23.0808 12.1825V15.2685H27.8679L27.2435 20.0996H23.0808V32.5037H18.0896V20.1036H13.9149V15.2685H18.0896V11.7062C18.0896 7.57151 20.6152 5.31805 24.3056 5.31805C26.0748 5.31805 27.5917 5.45013 28.036 5.51017V9.82897H28.032Z" fill="#FF5722"></path>
  </symbol>
  <symbol fill="none" xmlns="http://www.w3.org/2000/svg" viewBox="0 0 33 33" id="linkedln">
    <path d="M31.7182 0.48291H2.2591C1.55064 0.48291 0.978271 1.05528 0.978271 1.76374V31.2229C0.978271 31.9313 1.55064 32.5037 2.2591 32.5037H31.7182C32.4267 32.5037 32.9991 31.9313 32.9991 31.2229V1.76374C32.9991 1.05528 32.4267 0.48291 31.7182 0.48291ZM10.4764 27.7686H5.72535V12.4867H10.4764V27.7686ZM8.10289 10.3973C7.55825 10.3973 7.02583 10.2358 6.57297 9.93325C6.12011 9.63066 5.76715 9.20057 5.55873 8.69738C5.3503 8.1942 5.29577 7.6405 5.40202 7.10632C5.50828 6.57214 5.77055 6.08146 6.15567 5.69634C6.5408 5.31121 7.03148 5.04894 7.56566 4.94268C8.09984 4.83643 8.65353 4.89096 9.15672 5.09939C9.65991 5.30782 10.09 5.66078 10.3926 6.11363C10.6952 6.56649 10.8567 7.09891 10.8567 7.64356C10.8527 9.16454 9.61988 10.3973 8.10289 10.3973ZM28.264 27.7686H23.5169V20.3358C23.5169 18.5626 23.4849 16.2852 21.0473 16.2852C18.5777 16.2852 18.1974 18.2144 18.1974 20.2077V27.7686H13.4544V12.4867H18.0093V14.5761H18.0734C18.7058 13.3753 20.2548 12.1065 22.5683 12.1065C27.3794 12.1065 28.264 15.2725 28.264 19.3872V27.7686Z" fill="#FF5722"></path>
  </symbol>
</svg>