<svg width="64" height="48" viewBox="0 0 64 48" fill="none" xmlns="http://www.w3.org/2000/svg">
<path d="M58 0H6C2.687 0 0 2.688 0 6V42C0 45.313 2.688 48 6 48H58C61.313 48 64 45.312 64 42V6C64 2.687 61.312 0 58 0ZM58 6V11.102C55.195 13.382 50.73 16.934 41.176 24.41C39.07 26.066 34.902 30.047 32 30C29.098 30.047 24.926 26.066 22.824 24.41C13.274 16.934 8.804 13.383 6 11.102V6H58ZM6 42V18.8C8.863 21.082 12.926 24.281 19.117 29.129C21.847 31.28 26.633 36.027 32 36C37.34 36.027 42.063 31.352 44.883 29.133C49.2692 25.7063 53.6416 22.2619 58 18.8V42H6Z" fill="#FF5722"/>
</svg>
