<svg width="33" height="33" viewBox="0 0 33 33" fill="none" xmlns="http://www.w3.org/2000/svg">
<path d="M31.7182 0.48291H2.2591C1.55064 0.48291 0.978271 1.05528 0.978271 1.76374V31.2229C0.978271 31.9313 1.55064 32.5037 2.2591 32.5037H31.7182C32.4267 32.5037 32.9991 31.9313 32.9991 31.2229V1.76374C32.9991 1.05528 32.4267 0.48291 31.7182 0.48291ZM10.4764 27.7686H5.72535V12.4867H10.4764V27.7686ZM8.10289 10.3973C7.55825 10.3973 7.02583 10.2358 6.57297 9.93325C6.12011 9.63066 5.76715 9.20057 5.55873 8.69738C5.3503 8.1942 5.29577 7.6405 5.40202 7.10632C5.50828 6.57214 5.77055 6.08146 6.15567 5.69634C6.5408 5.31121 7.03148 5.04894 7.56566 4.94268C8.09984 4.83643 8.65353 4.89096 9.15672 5.09939C9.65991 5.30782 10.09 5.66078 10.3926 6.11363C10.6952 6.56649 10.8567 7.09891 10.8567 7.64356C10.8527 9.16454 9.61988 10.3973 8.10289 10.3973ZM28.264 27.7686H23.5169V20.3358C23.5169 18.5626 23.4849 16.2852 21.0473 16.2852C18.5777 16.2852 18.1974 18.2144 18.1974 20.2077V27.7686H13.4544V12.4867H18.0093V14.5761H18.0734C18.7058 13.3753 20.2548 12.1065 22.5683 12.1065C27.3794 12.1065 28.264 15.2725 28.264 19.3872V27.7686Z" fill="#FF5722"/>
</svg>
