<svg width="38" height="54" viewBox="0 0 38 54" fill="none" xmlns="http://www.w3.org/2000/svg">
<path d="M19 0.332001C8.68 0.332001 0.332001 8.68 0.332001 19C0.332001 33 19 53.668 19 53.668C19 53.668 37.668 33 37.668 19C37.668 8.68 29.32 0.332001 19 0.332001ZM19 25.668C17.2319 25.6669 15.5364 24.9641 14.2862 23.7138C13.0359 22.4636 12.3331 20.7681 12.332 19C12.3331 17.2319 13.0359 15.5364 14.2862 14.2862C15.5364 13.0359 17.2319 12.3331 19 12.332C20.7681 12.3331 22.4636 13.0359 23.7138 14.2862C24.9641 15.5364 25.6669 17.2319 25.668 19C25.6669 20.7681 24.9641 22.4636 23.7138 23.7138C22.4636 24.9641 20.7681 25.6669 19 25.668V25.668Z" fill="#FF5722"/>
</svg>
