<svg width="34" height="29" viewBox="0 0 34 29" fill="none" xmlns="http://www.w3.org/2000/svg">
<path d="M33.6651 4.17846C32.4403 4.7068 31.1074 5.08705 29.7346 5.23514C31.1599 4.38834 32.2273 3.05052 32.7365 1.4727C31.399 2.26837 29.9337 2.82631 28.4057 3.12177C27.7671 2.43903 26.9947 1.89514 26.1366 1.52396C25.2786 1.15279 24.3533 0.962307 23.4185 0.964372C19.636 0.964372 16.594 4.03036 16.594 7.7928C16.594 8.32115 16.6581 8.84949 16.7621 9.35782C11.0985 9.06163 6.04719 6.35587 2.68901 2.21318C2.07711 3.25832 1.75646 4.44834 1.76041 5.65942C1.76041 8.02896 2.96519 10.1183 4.80238 11.3471C3.71969 11.3045 2.66236 11.0069 1.71638 10.4785V10.5626C1.71638 13.8808 4.0619 16.6305 7.18793 17.2629C6.60098 17.4154 5.99718 17.4934 5.39076 17.4951C4.94647 17.4951 4.5262 17.4511 4.10192 17.391C4.96649 20.0968 7.48412 22.0621 10.4821 22.1261C8.13654 23.9633 5.19864 25.044 2.00857 25.044C1.4362 25.044 0.907853 25.024 0.359497 24.9599C3.38546 26.9012 6.97579 28.0219 10.8423 28.0219C23.3944 28.0219 30.2629 17.6232 30.2629 8.59733C30.2629 8.30113 30.2629 8.00494 30.2429 7.70875C31.5717 6.73612 32.7365 5.53134 33.6651 4.17846Z" fill="#FF5722"/>
</svg>
